<?xml version="1.0" encoding="UTF-8" standalone="no"?>
<svg
   xmlns:dc="http://purl.org/dc/elements/1.1/"
   xmlns:cc="http://creativecommons.org/ns#"
   xmlns:rdf="http://www.w3.org/1999/02/22-rdf-syntax-ns#"
   xmlns:svg="http://www.w3.org/2000/svg"
   xmlns="http://www.w3.org/2000/svg"
   viewBox="0 0 1051.9554 477.97964"
   height="477.97964"
   width="1051.9554"
   xml:space="preserve"
   id="svg2"
   version="1.1"><metadata
     id="metadata8"><rdf:RDF><cc:Work
         rdf:about=""><dc:format>image/svg+xml</dc:format><dc:type
           rdf:resource="http://purl.org/dc/dcmitype/StillImage" /></cc:Work></rdf:RDF></metadata><defs
     id="defs6"><clipPath
       id="clipPath14"
       clipPathUnits="userSpaceOnUse"><path
         id="path12"
         d="M 0,0 H 1417.44 V 1417.44 H 0 Z" /></clipPath><clipPath
       id="clipPath22"
       clipPathUnits="userSpaceOnUse"><path
         style="clip-rule:evenodd"
         id="path20"
         d="M 0,2.4414e-4 H 1417.44 V 1417.4402 H 0 Z" /></clipPath><clipPath
       id="clipPath42"
       clipPathUnits="userSpaceOnUse"><path
         style="clip-rule:evenodd"
         id="path40"
         d="M 2.1122e-5,-1.2207e-4 H 1417.44 V 1417.4399 H 2.1122e-5 Z" /></clipPath><clipPath
       id="clipPath58"
       clipPathUnits="userSpaceOnUse"><path
         style="clip-rule:evenodd"
         id="path56"
         d="M 2.1122e-5,-1.2207e-4 H 1417.44 V 1417.4399 H 2.1122e-5 Z" /></clipPath><clipPath
       id="clipPath74"
       clipPathUnits="userSpaceOnUse"><path
         style="clip-rule:evenodd"
         id="path72"
         d="M 2.1122e-5,-1.2207e-4 H 1417.44 V 1417.4399 H 2.1122e-5 Z" /></clipPath><clipPath
       id="clipPath92"
       clipPathUnits="userSpaceOnUse"><path
         style="clip-rule:evenodd"
         id="path90"
         d="M 2.1122e-5,-1.2207e-4 H 1417.44 V 1417.4399 H 2.1122e-5 Z" /></clipPath><clipPath
       id="clipPath108"
       clipPathUnits="userSpaceOnUse"><path
         style="clip-rule:evenodd"
         id="path106"
         d="M 2.1122e-5,-1.2207e-4 H 1417.44 V 1417.4399 H 2.1122e-5 Z" /></clipPath><clipPath
       id="clipPath120"
       clipPathUnits="userSpaceOnUse"><path
         style="clip-rule:evenodd"
         id="path118"
         d="M 2.1122e-5,-1.2207e-4 H 1417.44 V 1417.4399 H 2.1122e-5 Z" /></clipPath><clipPath
       id="clipPath132"
       clipPathUnits="userSpaceOnUse"><path
         style="clip-rule:evenodd"
         id="path130"
         d="M 2.1122e-5,-1.2207e-4 H 1417.44 V 1417.4399 H 2.1122e-5 Z" /></clipPath><clipPath
       id="clipPath144"
       clipPathUnits="userSpaceOnUse"><path
         style="clip-rule:evenodd"
         id="path142"
         d="M 2.1122e-5,-1.2207e-4 H 1417.44 V 1417.4399 H 2.1122e-5 Z" /></clipPath><clipPath
       id="clipPath156"
       clipPathUnits="userSpaceOnUse"><path
         style="clip-rule:evenodd"
         id="path154"
         d="M 2.1122e-5,-1.2207e-4 H 1417.44 V 1417.4399 H 2.1122e-5 Z" /></clipPath><clipPath
       id="clipPath168"
       clipPathUnits="userSpaceOnUse"><path
         style="clip-rule:evenodd"
         id="path166"
         d="M 2.1122e-5,-1.2207e-4 H 1417.44 V 1417.4399 H 2.1122e-5 Z" /></clipPath><clipPath
       id="clipPath180"
       clipPathUnits="userSpaceOnUse"><path
         style="clip-rule:evenodd"
         id="path178"
         d="M 2.1122e-5,-1.2207e-4 H 1417.44 V 1417.4399 H 2.1122e-5 Z" /></clipPath><clipPath
       id="clipPath192"
       clipPathUnits="userSpaceOnUse"><path
         style="clip-rule:evenodd"
         id="path190"
         d="M 2.1122e-5,-1.2207e-4 H 1417.44 V 1417.4399 H 2.1122e-5 Z" /></clipPath><clipPath
       id="clipPath204"
       clipPathUnits="userSpaceOnUse"><path
         style="clip-rule:evenodd"
         id="path202"
         d="M 2.1122e-5,-1.2207e-4 H 1417.44 V 1417.4399 H 2.1122e-5 Z" /></clipPath><clipPath
       id="clipPath216"
       clipPathUnits="userSpaceOnUse"><path
         style="clip-rule:evenodd"
         id="path214"
         d="M 2.1122e-5,-1.2207e-4 H 1417.44 V 1417.4399 H 2.1122e-5 Z" /></clipPath><clipPath
       id="clipPath234"
       clipPathUnits="userSpaceOnUse"><path
         style="clip-rule:evenodd"
         id="path232"
         d="M 2.1122e-5,-1.2207e-4 H 1417.44 V 1417.4399 H 2.1122e-5 Z" /></clipPath><clipPath
       id="clipPath250"
       clipPathUnits="userSpaceOnUse"><path
         style="clip-rule:evenodd"
         id="path248"
         d="M 2.1122e-5,-1.2207e-4 H 1417.44 V 1417.4399 H 2.1122e-5 Z" /></clipPath><clipPath
       id="clipPath266"
       clipPathUnits="userSpaceOnUse"><path
         style="clip-rule:evenodd"
         id="path264"
         d="M 2.1122e-5,-1.2207e-4 H 1417.44 V 1417.4399 H 2.1122e-5 Z" /></clipPath><clipPath
       id="clipPath278"
       clipPathUnits="userSpaceOnUse"><path
         style="clip-rule:evenodd"
         id="path276"
         d="M 2.1122e-5,-1.2207e-4 H 1417.44 V 1417.4399 H 2.1122e-5 Z" /></clipPath><clipPath
       id="clipPath294"
       clipPathUnits="userSpaceOnUse"><path
         style="clip-rule:evenodd"
         id="path292"
         d="M 2.1122e-5,-1.2207e-4 H 1417.44 V 1417.4399 H 2.1122e-5 Z" /></clipPath><clipPath
       id="clipPath306"
       clipPathUnits="userSpaceOnUse"><path
         style="clip-rule:evenodd"
         id="path304"
         d="M 2.1122e-5,-1.2207e-4 H 1417.44 V 1417.4399 H 2.1122e-5 Z" /></clipPath><clipPath
       id="clipPath322"
       clipPathUnits="userSpaceOnUse"><path
         style="clip-rule:evenodd"
         id="path320"
         d="M 2.1122e-5,-1.2207e-4 H 1417.44 V 1417.4399 H 2.1122e-5 Z" /></clipPath><clipPath
       id="clipPath334"
       clipPathUnits="userSpaceOnUse"><path
         style="clip-rule:evenodd"
         id="path332"
         d="M 2.1122e-5,-1.2207e-4 H 1417.44 V 1417.4399 H 2.1122e-5 Z" /></clipPath><clipPath
       id="clipPath350"
       clipPathUnits="userSpaceOnUse"><path
         style="clip-rule:evenodd"
         id="path348"
         d="M 2.1122e-5,-1.2207e-4 H 1417.44 V 1417.4399 H 2.1122e-5 Z" /></clipPath><clipPath
       id="clipPath362"
       clipPathUnits="userSpaceOnUse"><path
         style="clip-rule:evenodd"
         id="path360"
         d="M 2.1122e-5,-1.2207e-4 H 1417.44 V 1417.4399 H 2.1122e-5 Z" /></clipPath><clipPath
       id="clipPath378"
       clipPathUnits="userSpaceOnUse"><path
         style="clip-rule:evenodd"
         id="path376"
         d="M 2.1122e-5,-1.2207e-4 H 1417.44 V 1417.4399 H 2.1122e-5 Z" /></clipPath><clipPath
       id="clipPath390"
       clipPathUnits="userSpaceOnUse"><path
         style="clip-rule:evenodd"
         id="path388"
         d="M 2.1122e-5,-1.2207e-4 H 1417.44 V 1417.4399 H 2.1122e-5 Z" /></clipPath><clipPath
       id="clipPath406"
       clipPathUnits="userSpaceOnUse"><path
         style="clip-rule:evenodd"
         id="path404"
         d="M 2.1122e-5,-1.2207e-4 H 1417.44 V 1417.4399 H 2.1122e-5 Z" /></clipPath><clipPath
       id="clipPath418"
       clipPathUnits="userSpaceOnUse"><path
         style="clip-rule:evenodd"
         id="path416"
         d="M 2.1122e-5,-1.2207e-4 H 1417.44 V 1417.4399 H 2.1122e-5 Z" /></clipPath><clipPath
       id="clipPath434"
       clipPathUnits="userSpaceOnUse"><path
         style="clip-rule:evenodd"
         id="path432"
         d="M 2.1122e-5,-1.2207e-4 H 1417.44 V 1417.4399 H 2.1122e-5 Z" /></clipPath><clipPath
       id="clipPath446"
       clipPathUnits="userSpaceOnUse"><path
         style="clip-rule:evenodd"
         id="path444"
         d="M 2.1122e-5,-1.2207e-4 H 1417.44 V 1417.4399 H 2.1122e-5 Z" /></clipPath><clipPath
       id="clipPath466"
       clipPathUnits="userSpaceOnUse"><path
         style="clip-rule:evenodd"
         id="path464"
         d="M 2.1122e-5,-1.2207e-4 H 1417.44 V 1417.4399 H 2.1122e-5 Z" /></clipPath><clipPath
       id="clipPath478"
       clipPathUnits="userSpaceOnUse"><path
         style="clip-rule:evenodd"
         id="path476"
         d="M 2.1122e-5,-1.2207e-4 H 1417.44 V 1417.4399 H 2.1122e-5 Z" /></clipPath><clipPath
       id="clipPath490"
       clipPathUnits="userSpaceOnUse"><path
         style="clip-rule:evenodd"
         id="path488"
         d="M 2.1122e-5,-1.2207e-4 H 1417.44 V 1417.4399 H 2.1122e-5 Z" /></clipPath><clipPath
       id="clipPath504"
       clipPathUnits="userSpaceOnUse"><path
         style="clip-rule:evenodd"
         id="path502"
         d="M 2.1122e-5,-1.2207e-4 H 1417.44 V 1417.4399 H 2.1122e-5 Z" /></clipPath><clipPath
       id="clipPath518"
       clipPathUnits="userSpaceOnUse"><path
         style="clip-rule:evenodd"
         id="path516"
         d="M 2.1122e-5,-1.2207e-4 H 1417.44 V 1417.4399 H 2.1122e-5 Z" /></clipPath></defs><g
     clip-path="url(#clipPath14)"
     transform="matrix(1.3333333,0,0,-1.3333333,-439.98136,1249.9469)"
     id="g10"><g
       id="g16"><g
         clip-path="url(#clipPath22)"
         id="g18"><path
           id="path24"
           style="fill:#ffffff;fill-opacity:1;fill-rule:evenodd;stroke:none"
           d="M 0,0 H 1417.44 V 1417.44 H 0 Z" /></g></g><path
       id="path26"
       style="fill:#000000;fill-opacity:1;fill-rule:nonzero;stroke:none"
       d="m 985.46,738.59 1.02,5.07 0.81,5.09 0.62,5.08 0.42,5.09 0.21,5.07 0.01,5.06 -0.18,5.03 -0.37,5 -0.56,4.98 -0.75,4.94 -0.94,4.9 -1.12,4.85 -1.3,4.8 -1.49,4.74 -1.66,4.68 -1.84,4.61 -2,4.54 -2.19,4.46 -2.35,4.38 -2.52,4.28 -2.68,4.2 -2.84,4.09 -3.01,3.99 -3.16,3.89 -3.32,3.76 -3.48,3.65 -3.62,3.53 -3.78,3.39 -3.92,3.26 -4.06,3.12 -4.35,3.03 -0.82,-1.18 4.33,-3.02 -0.03,0.02 4.04,-3.1 -0.02,0.02 3.9,-3.24 -0.02,0.01 3.76,-3.37 -0.02,0.02 3.6,-3.51 -0.02,0.02 3.46,-3.63 -0.02,0.02 3.3,-3.74 -0.02,0.02 3.14,-3.86 -0.01,0.02 2.99,-3.97 -0.02,0.02 2.83,-4.07 -0.02,0.02 2.67,-4.18 -0.01,0.03 2.5,-4.26 -0.02,0.02 2.34,-4.35 -0.01,0.03 2.18,-4.44 -0.02,0.02 2,-4.51 -0.01,0.02 1.83,-4.58 -0.01,0.02 1.65,-4.65 -0.01,0.03 1.48,-4.72 -0.01,0.03 1.3,-4.77 -0.01,0.02 1.12,-4.82 -0.01,0.03 0.93,-4.87 v 0.02 l 0.75,-4.91 -0.01,0.03 0.56,-4.95 v 0.02 l 0.36,-4.98 v 0.03 l 0.18,-5 v 0.03 l -0.01,-5.03 v 0.03 l -0.21,-5.05 v 0.03 l -0.41,-5.05 v 0.02 l -0.61,-5.05 v 0.03 l -0.81,-5.07 v 0.03 l -1.02,-5.05 z m -52.33,137.93 -6.66,0.78 3.37,-5.8 z" /><path
       id="path28"
       style="fill:#000000;fill-opacity:1;fill-rule:nonzero;stroke:none"
       d="m 736.55,716.62 2.74,-6.12 3.01,-5.93 3.29,-5.72 3.54,-5.5 3.78,-5.27 4.01,-5.04 4.23,-4.82 4.44,-4.58 4.65,-4.34 4.82,-4.09 5.02,-3.83 5.17,-3.59 5.33,-3.33 5.49,-3.07 5.61,-2.79 5.74,-2.53 5.86,-2.24 5.95,-1.97 6.05,-1.68 6.13,-1.4 6.2,-1.09 6.27,-0.8 6.31,-0.5 6.35,-0.19 6.37,0.12 6.4,0.45 6.4,0.75 6.4,1.09 6.39,1.42 6.35,1.75 6.32,2.08 6.27,2.43 3.27,1.41 3.22,1.5 3.17,1.6 3.13,1.66 3.08,1.75 3.03,1.83 2.98,1.92 2.92,1.99 2.87,2.07 2.81,2.15 2.76,2.24 2.69,2.3 2.64,2.37 2.56,2.45 1.46,1.49 -1.02,1.01 -1.46,-1.49 0.02,0.02 -2.55,-2.43 0.02,0.01 -2.62,-2.36 0.01,0.02 -2.68,-2.29 0.01,0.01 -2.74,-2.22 0.02,0.01 -2.8,-2.14 0.02,0.02 -2.85,-2.07 0.02,0.02 -2.91,-1.98 0.01,0.01 -2.96,-1.91 0.02,0.01 -3.02,-1.82 0.02,0.01 -3.06,-1.74 0.01,0.01 -3.11,-1.66 0.02,0.01 -3.16,-1.58 0.02,0.01 -3.2,-1.5 0.01,0.01 -3.24,-1.4 0.02,0.01 -6.24,-2.42 0.04,0.02 -6.29,-2.08 0.04,0.01 -6.32,-1.74 0.04,0.01 -6.36,-1.41 h 0.04 l -6.36,-1.08 0.04,0.01 -6.37,-0.75 h 0.03 l -6.36,-0.44 h 0.04 l -6.34,-0.12 h 0.04 l -6.32,0.19 h 0.04 l -6.28,0.49 h 0.03 l -6.23,0.79 h 0.04 l -6.17,1.09 0.03,-0.01 -6.09,1.39 0.03,-0.01 -6.01,1.67 0.03,-0.01 -5.93,1.96 0.04,-0.01 -5.82,2.23 0.03,-0.01 -5.71,2.51 0.03,-0.01 -5.59,2.77 0.03,-0.01 -5.45,3.05 0.03,-0.02 -5.3,3.31 0.03,-0.02 -5.15,3.57 0.03,-0.02 -4.99,3.82 0.03,-0.03 -4.8,4.07 0.03,-0.02 -4.62,4.31 0.02,-0.03 -4.42,4.56 0.03,-0.03 -4.21,4.79 0.02,-0.02 -3.99,5.01 0.03,-0.03 -3.76,5.25 0.02,-0.03 -3.52,5.46 0.02,-0.03 -3.27,5.69 0.02,-0.03 -3,5.9 0.01,-0.03 -2.73,6.1 z m 214.44,-43.9 2,6.41 -6.32,-2.25 z" /><path
       id="path30"
       style="fill:#000000;fill-opacity:1;fill-rule:nonzero;stroke:none"
       d="m 806.17,886.93 -4.91,-2.23 -4.8,-2.43 -4.67,-2.61 -4.53,-2.78 -4.39,-2.95 -4.24,-3.1 -4.11,-3.26 -3.96,-3.42 -3.8,-3.56 -3.66,-3.7 -3.49,-3.83 -3.34,-3.96 -3.17,-4.09 -3,-4.21 -2.84,-4.31 -2.66,-4.43 -2.48,-4.51 -2.31,-4.63 -2.12,-4.71 -1.94,-4.8 -1.75,-4.87 -1.55,-4.95 -1.37,-5.02 -1.16,-5.07 -0.96,-5.14 -0.76,-5.2 -0.54,-5.23 -0.34,-5.28 -0.13,-5.31 0.1,-5.34 0.38,-5.73 1.43,0.09 -0.37,5.72 v -0.04 l -0.1,5.31 v -0.03 l 0.13,5.28 v -0.03 l 0.34,5.25 -0.01,-0.02 0.54,5.2 v -0.03 l 0.76,5.17 -0.01,-0.03 0.96,5.11 -0.01,-0.03 1.15,5.05 v -0.03 l 1.35,4.99 v -0.02 l 1.54,4.92 -0.01,-0.03 1.74,4.84 -0.01,-0.02 1.93,4.77 -0.01,-0.03 2.11,4.69 -0.02,-0.03 2.3,4.6 -0.01,-0.02 2.46,4.49 -0.01,-0.03 2.65,4.41 -0.02,-0.03 2.82,4.29 -0.01,-0.02 2.98,4.18 -0.02,-0.02 3.16,4.07 -0.02,-0.03 3.32,3.94 -0.02,-0.02 3.47,3.81 -0.02,-0.02 3.64,3.68 -0.02,-0.02 3.78,3.54 -0.02,-0.02 3.94,3.4 -0.03,-0.02 4.09,3.24 -0.02,-0.02 4.22,3.09 -0.02,-0.01 4.36,2.93 -0.02,-0.02 4.5,2.76 -0.02,-0.01 4.64,2.59 -0.02,-0.01 4.77,2.42 -0.03,-0.02 4.9,2.23 z m -80.87,-129.91 3.56,-5.68 2.42,6.25 z" /><path
       id="path32"
       style="fill:#ed7d31;fill-opacity:1;fill-rule:evenodd;stroke:none"
       d="m 915.36,914.8 c 0,4.95 -4.01,8.96 -8.96,8.96 h -90.08 c -4.95,0 -8.96,-4.01 -8.96,-8.96 v -35.84 c 0,-4.95 4.01,-8.96 8.96,-8.96 h 90.08 c 4.95,0 8.96,4.01 8.96,8.96 z" /><path
       id="path34"
       style="fill:none;stroke:#ae5a21;stroke-width:1.44000006;stroke-linecap:butt;stroke-linejoin:miter;stroke-miterlimit:10;stroke-dasharray:none;stroke-opacity:1"
       d="m 915.36,914.8 c 0,4.95 -4.01,8.96 -8.96,8.96 h -90.08 c -4.95,0 -8.96,-4.01 -8.96,-8.96 v -35.84 c 0,-4.95 4.01,-8.96 8.96,-8.96 h 90.08 c 4.95,0 8.96,4.01 8.96,8.96 z" /><g
       id="g36"><g
         clip-path="url(#clipPath42)"
         id="g38"><text
           id="text46"
           style="font-variant:normal;font-weight:bold;font-size:18.02400017px;font-family:Arial;-inkscape-font-specification:'Arial Bold';writing-mode:lr-tb;fill:#ffffff;fill-opacity:1;fill-rule:nonzero;stroke:none"
           transform="matrix(1,0,0,-1,819.7,889.99)"><tspan
             id="tspan44"
             y="0"
             x="0 13.914528 24.927193 30.929184 35.975903 52.03529 57.045959 66.184128 76.241524">Optimizer</tspan></text>
</g></g><path
       id="path48"
       style="fill:#4472c4;fill-opacity:1;fill-rule:evenodd;stroke:none"
       d="m 1023.36,734.56 c 0,4.95 -4.01,8.96 -8.96,8.96 h -90.08 c -4.95,0 -8.96,-4.01 -8.96,-8.96 v -35.84 c 0,-4.95 4.01,-8.96 8.96,-8.96 h 90.08 c 4.95,0 8.96,4.01 8.96,8.96 z" /><path
       id="path50"
       style="fill:none;stroke:#2f528f;stroke-width:1.44000006;stroke-linecap:butt;stroke-linejoin:miter;stroke-miterlimit:10;stroke-dasharray:none;stroke-opacity:1"
       d="m 1023.36,734.56 c 0,4.95 -4.01,8.96 -8.96,8.96 h -90.08 c -4.95,0 -8.96,-4.01 -8.96,-8.96 v -35.84 c 0,-4.95 4.01,-8.96 8.96,-8.96 h 90.08 c 4.95,0 8.96,4.01 8.96,8.96 z" /><g
       id="g52"><g
         clip-path="url(#clipPath58)"
         id="g54"><text
           id="text62"
           style="font-variant:normal;font-weight:bold;font-size:18.02400017px;font-family:Arial;-inkscape-font-specification:'Arial Bold';writing-mode:lr-tb;fill:#ffffff;fill-opacity:1;fill-rule:nonzero;stroke:none"
           transform="matrix(1,0,0,-1,927.72,709.87)"><tspan
             id="tspan60"
             y="0"
             x="0 12.022008 22.043352 28.045343 33.110088 49.169472 59.226864 65.228859 76.241524">Estimator</tspan></text>
</g></g><path
       id="path64"
       style="fill:#00b050;fill-opacity:1;fill-rule:evenodd;stroke:none"
       d="m 807.36,734.56 c 0,4.95 -4.01,8.96 -8.96,8.96 h -90.08 c -4.95,0 -8.96,-4.01 -8.96,-8.96 v -35.84 c 0,-4.95 4.01,-8.96 8.96,-8.96 h 90.08 c 4.95,0 8.96,4.01 8.96,8.96 z" /><path
       id="path66"
       style="fill:none;stroke:#507e32;stroke-width:1.44000006;stroke-linecap:butt;stroke-linejoin:miter;stroke-miterlimit:10;stroke-dasharray:none;stroke-opacity:1"
       d="m 807.36,734.56 c 0,4.95 -4.01,8.96 -8.96,8.96 h -90.08 c -4.95,0 -8.96,-4.01 -8.96,-8.96 v -35.84 c 0,-4.95 4.01,-8.96 8.96,-8.96 h 90.08 c 4.95,0 8.96,4.01 8.96,8.96 z" /><g
       id="g68"><g
         clip-path="url(#clipPath74)"
         id="g70"><text
           id="text78"
           style="font-variant:normal;font-weight:bold;font-size:18.02400017px;font-family:Arial;-inkscape-font-specification:'Arial Bold';writing-mode:lr-tb;fill:#ffffff;fill-opacity:1;fill-rule:nonzero;stroke:none"
           transform="matrix(1,0,0,-1,709.27,709.87)"><tspan
             id="tspan76"
             y="0"
             x="0 10.075416 17.086752 27.108095 38.120762 48.214199 54.21619 65.228859 72.240189">Transform</tspan></text>
</g></g><path
       id="path80"
       style="fill:#000000;fill-opacity:1;fill-rule:nonzero;stroke:none"
       d="m 699.36,647.52 h 81.46 v -1.44 h -81.46 z m 80.46,2.28 6,-3 -6,-3 z" /><path
       id="path82"
       style="fill:#70ad47;fill-opacity:1;fill-rule:evenodd;stroke:none"
       d="m 699.36,664.28 c 0,4.79 -3.89,8.68 -8.68,8.68 h -91.36 c -4.79,0 -8.68,-3.89 -8.68,-8.68 v -34.72 c 0,-4.79 3.89,-8.68 8.68,-8.68 h 91.36 c 4.79,0 8.68,3.89 8.68,8.68 z" /><path
       id="path84"
       style="fill:none;stroke:#507e32;stroke-width:1.44000006;stroke-linecap:butt;stroke-linejoin:miter;stroke-miterlimit:10;stroke-dasharray:none;stroke-opacity:1"
       d="m 699.36,664.28 c 0,4.79 -3.89,8.68 -8.68,8.68 h -91.36 c -4.79,0 -8.68,-3.89 -8.68,-8.68 v -34.72 c 0,-4.79 3.89,-8.68 8.68,-8.68 h 91.36 c 4.79,0 8.68,3.89 8.68,8.68 z" /><g
       id="g86"><g
         clip-path="url(#clipPath92)"
         id="g88"><text
           id="text96"
           style="font-variant:normal;font-weight:bold;font-size:18.02400017px;font-family:Arial;-inkscape-font-specification:'Arial Bold';writing-mode:lr-tb;fill:#ffffff;fill-opacity:1;fill-rule:nonzero;stroke:none"
           transform="matrix(1,0,0,-1,602.4,640.08)"><tspan
             id="tspan94"
             y="0"
             x="0 13.013328 24.025991 35.038654 45.096046 51.098042 58.109375 69.12204 79.143387">Construct</tspan></text>
</g></g><path
       id="path98"
       style="fill:#000000;fill-opacity:1;fill-rule:nonzero;stroke:none"
       d="m 463.44,647.52 h 101.91 v -1.44 H 463.44 Z m 100.91,2.28 6,-3 -6,-3 z" /><path
       id="path100"
       style="fill:#000000;fill-opacity:1;fill-rule:nonzero;stroke:none"
       d="m 517.23,708.75 49.75,-50.03 -1.03,-1.02 -49.74,50.03 z m 50.66,-47.72 2.1,-6.37 -6.36,2.14 z" /><g
       id="g102"><g
         clip-path="url(#clipPath108)"
         id="g104"><text
           id="text112"
           style="font-variant:normal;font-weight:normal;font-size:13.92000008px;font-family:Arial;-inkscape-font-specification:Arial;writing-mode:lr-tb;fill:#000000;fill-opacity:1;fill-rule:nonzero;stroke:none"
           transform="matrix(1,0,0,-1,342.55,593.35)"><tspan
             id="tspan110"
             y="0"
             x="0 7.6838398 11.5536 15.5904 25.64064 33.380161 37.194241 40.284481 48.023998 55.68 59.74464 69.084961 76.768799 83.728798 90.911522 98.59536 106.2792 113.96304">1. Define Backbone</tspan></text>
</g></g><g
       id="g114"><g
         clip-path="url(#clipPath120)"
         id="g116"><text
           id="text124"
           style="font-variant:normal;font-weight:normal;font-size:13.92000008px;font-family:Arial;-inkscape-font-specification:Arial;writing-mode:lr-tb;fill:#000000;fill-opacity:1;fill-rule:nonzero;stroke:none"
           transform="matrix(1,0,0,-1,1030.99,720.17)"><tspan
             id="tspan122"
             y="0"
             x="0 7.6838398 11.5536 15.36768 23.524799 28.090561 35.774399 38.864639 46.60416 50.41824 59.75856">3. Train &amp; </tspan></text>
</g></g><g
       id="g126"><g
         clip-path="url(#clipPath132)"
         id="g128"><text
           id="text136"
           style="font-variant:normal;font-weight:normal;font-size:13.94400024px;font-family:Arial;-inkscape-font-specification:Arial;writing-mode:lr-tb;fill:#000000;fill-opacity:1;fill-rule:nonzero;stroke:none"
           transform="matrix(1,0,0,-1,1030.99,703.37)"><tspan
             id="tspan134"
             y="0"
             x="0 9.3424797 16.31448 23.983681 27.079248 34.790279 42.473423 46.349857">Evaluate</tspan></text>
</g></g><g
       id="g138"><g
         clip-path="url(#clipPath144)"
         id="g140"><text
           id="text148"
           style="font-variant:normal;font-weight:normal;font-size:13.94400024px;font-family:Arial;-inkscape-font-specification:Arial;writing-mode:lr-tb;fill:#000000;fill-opacity:1;fill-rule:nonzero;stroke:none"
           transform="matrix(1,0,0,-1,600.91,846.65)"><tspan
             id="tspan146"
             y="0"
             x="0 7.6831441 11.559576 15.589392 24.931871 32.615017 44.355865 52.039009 55.134575 62.845608 66.722038 76.02269 83.719772 88.279465 95.962608 107.70345 114.67545">4. Sample Params.</tspan></text>
</g></g><g
       id="g150"><g
         clip-path="url(#clipPath156)"
         id="g152"><text
           id="text160"
           style="font-variant:normal;font-weight:normal;font-size:13.92000008px;font-family:Arial;-inkscape-font-specification:Arial;writing-mode:lr-tb;fill:#000000;fill-opacity:1;fill-rule:nonzero;stroke:none"
           transform="matrix(1,0,0,-1,637.27,720.17)"><tspan
             id="tspan158"
             y="0"
             x="0 7.6800199">5.</tspan></text>
</g></g><g
       id="g162"><g
         clip-path="url(#clipPath168)"
         id="g164"><text
           id="text172"
           style="font-variant:normal;font-weight:normal;font-size:13.92000008px;font-family:Arial;-inkscape-font-specification:Arial;writing-mode:lr-tb;fill:#000000;fill-opacity:1;fill-rule:nonzero;stroke:none"
           transform="matrix(1,0,0,-1,652.87,720.17)"><tspan
             id="tspan170"
             y="0"
             x="0 11.2752 18.95904 26.642879 29.73312 33.602879 40.0896">Modify </tspan></text>
</g></g><g
       id="g174"><g
         clip-path="url(#clipPath180)"
         id="g176"><text
           id="text184"
           style="font-variant:normal;font-weight:normal;font-size:13.94400024px;font-family:Arial;-inkscape-font-specification:Arial;writing-mode:lr-tb;fill:#000000;fill-opacity:1;fill-rule:nonzero;stroke:none"
           transform="matrix(1,0,0,-1,617.11,703.37)"><tspan
             id="tspan182"
             y="0"
             x="0 9.3424797 13.902168 20.874168 28.543367 32.4198 36.449615 45.792095 49.66853 57.309841 61.186272 68.827583">Arch. States</tspan></text>
</g></g><g
       id="g186"><g
         clip-path="url(#clipPath192)"
         id="g188"><text
           id="text196"
           style="font-variant:normal;font-weight:normal;font-size:13.92000008px;font-family:Arial;-inkscape-font-specification:Arial;writing-mode:lr-tb;fill:#000000;fill-opacity:1;fill-rule:nonzero;stroke:none"
           transform="matrix(1,0,0,-1,345.62,847.08)"><tspan
             id="tspan194"
             y="0"
             x="0 7.6838398 11.5536 15.5904 23.984159 27.0744 34.813919">6. Fine</tspan></text>
</g></g><g
       id="g198"><g
         clip-path="url(#clipPath204)"
         id="g200"><text
           id="text208"
           style="font-variant:normal;font-weight:normal;font-size:13.92000008px;font-family:Arial;-inkscape-font-specification:Arial;writing-mode:lr-tb;fill:#000000;fill-opacity:1;fill-rule:nonzero;stroke:none"
           transform="matrix(1,0,0,-1,388.13,847.08)"><tspan
             id="tspan206"
             y="0"
             x="0">-</tspan></text>
</g></g><g
       id="g210"><g
         clip-path="url(#clipPath216)"
         id="g212"><text
           id="text220"
           style="font-variant:normal;font-weight:normal;font-size:13.92000008px;font-family:Arial;-inkscape-font-specification:Arial;writing-mode:lr-tb;fill:#000000;fill-opacity:1;fill-rule:nonzero;stroke:none"
           transform="matrix(1,0,0,-1,392.69,847.08)"><tspan
             id="tspan218"
             y="0"
             x="0 3.86976 11.52576 19.2096 26.89344 31.194719 40.535042 44.4048 53.717281 60.440639 68.124481 75.808319 80.374077 84.243843 87.807358 97.147682 101.71344 108.67344 116.35728">tune &amp; Export Arch.</tspan></text>
</g></g><path
       id="path222"
       style="fill:#000000;fill-opacity:1;fill-rule:nonzero;stroke:none"
       d="M 717.65,807.12 H 647 v 1.44 h 70.65 z m -69.65,-2.28 -6,3 6,3 z" /><path
       id="path224"
       style="fill:#e7e6e6;fill-opacity:1;fill-rule:evenodd;stroke:none"
       d="m 946.32,640.8 c 0,3.31 2.69,6 6,6 h 65.04 c 3.31,0 6,-2.69 6,-6 v -24 c 0,-3.31 -2.69,-6 -6,-6 h -65.04 c -3.31,0 -6,2.69 -6,6 z" /><path
       id="path226"
       style="fill:none;stroke:#000000;stroke-width:1.44000006;stroke-linecap:butt;stroke-linejoin:miter;stroke-miterlimit:10;stroke-dasharray:none;stroke-opacity:1"
       d="m 946.32,640.8 c 0,3.31 2.69,6 6,6 h 65.04 c 3.31,0 6,-2.69 6,-6 v -24 c 0,-3.31 -2.69,-6 -6,-6 h -65.04 c -3.31,0 -6,2.69 -6,6 z" /><g
       id="g228"><g
         clip-path="url(#clipPath234)"
         id="g230"><text
           id="text238"
           style="font-variant:normal;font-weight:bold;font-size:16.07999992px;font-family:Arial;-inkscape-font-specification:'Arial Bold';writing-mode:lr-tb;fill:#000000;fill-opacity:1;fill-rule:nonzero;stroke:none"
           transform="matrix(1,0,0,-1,956.26,622.68)"><tspan
             id="tspan236"
             y="0"
             x="0 11.51328 20.389441 25.663679 34.539841 43.416 52.29216">Dataset</tspan></text>
</g></g><path
       id="path240"
       style="fill:#000000;fill-opacity:1;fill-rule:nonzero;stroke:none"
       d="m 985.68,646.83 v 24.49 h -1.44 v -24.49 z m 2.28,23.49 -3,6 -3,-6 z" /><path
       id="path242"
       style="fill:#000000;fill-opacity:1;fill-rule:nonzero;stroke:none"
       d="m 526.3,808.56 h -35.54 v -1.44 h 35.54 z m -34.54,2.28 -6,-3 6,-3 z" /><g
       id="g244"><g
         clip-path="url(#clipPath250)"
         id="g246"><text
           id="text254"
           style="font-variant:normal;font-weight:normal;font-size:13.92000008px;font-family:Arial;-inkscape-font-specification:Arial;writing-mode:lr-tb;fill:#000000;fill-opacity:1;fill-rule:nonzero;stroke:none"
           transform="matrix(1,0,0,-1,574.06,593.35)"><tspan
             id="tspan252"
             y="0"
             x="0 7.6838398 11.5536 15.5904 25.64064 33.380161 41.03616 47.996159 51.865921 56.389919 64.073761 71.03376 74.903519 79.176964 88.517281 92.387039 95.950562 103.6344 106.72464 110.5944 113.68464 121.42416 124.5144 127.60464 134.35583">2. Construct &amp; Initialize</tspan></text>
</g></g><path
       id="path256"
       style="fill:#00b0f0;fill-opacity:1;fill-rule:evenodd;stroke:none"
       d="m 347.4,808.32 22.75,21.48 h 68.26 l 22.75,-21.48 -22.75,-21.48 h -68.26 z" /><path
       id="path258"
       style="fill:none;stroke:#41719c;stroke-width:6;stroke-linecap:butt;stroke-linejoin:miter;stroke-miterlimit:10;stroke-dasharray:none;stroke-opacity:1"
       d="m 347.4,808.32 22.75,21.48 h 68.26 l 22.75,-21.48 -22.75,-21.48 h -68.26 z" /><g
       id="g260"><g
         clip-path="url(#clipPath266)"
         id="g262"><text
           id="text270"
           style="font-variant:normal;font-weight:bold;font-size:13.92000008px;font-family:Arial;-inkscape-font-specification:'Arial Bold';writing-mode:lr-tb;fill:#ffffff;fill-opacity:1;fill-rule:nonzero;stroke:none"
           transform="matrix(1,0,0,-1,372.91,811.39)"><tspan
             id="tspan268"
             y="0"
             x="0 3.86976 16.30032 24.69408 30.2064 38.600159 46.03344 53.717281">Improved</tspan></text>
</g></g><g
       id="g272"><g
         clip-path="url(#clipPath278)"
         id="g274"><text
           id="text282"
           style="font-variant:normal;font-weight:bold;font-size:13.92000008px;font-family:Arial;-inkscape-font-specification:'Arial Bold';writing-mode:lr-tb;fill:#ffffff;fill-opacity:1;fill-rule:nonzero;stroke:none"
           transform="matrix(1,0,0,-1,386.35,794.59)"><tspan
             id="tspan280"
             y="0"
             x="0 9.8414402 15.35376 23.0376 31.43136">Arch.</tspan></text>
</g></g><path
       id="path284"
       style="fill:#ffc000;fill-opacity:1;fill-rule:evenodd;stroke:none"
       d="m 525.96,808.08 19.58,21.48 H 604.3 L 623.88,808.08 604.3,786.6 h -58.76 z" /><path
       id="path286"
       style="fill:none;stroke:#bc8c00;stroke-width:6;stroke-linecap:butt;stroke-linejoin:miter;stroke-miterlimit:10;stroke-dasharray:none;stroke-opacity:1"
       d="m 525.96,808.08 19.58,21.48 H 604.3 L 623.88,808.08 604.3,786.6 h -58.76 z" /><g
       id="g288"><g
         clip-path="url(#clipPath294)"
         id="g290"><text
           id="text298"
           style="font-variant:normal;font-weight:bold;font-size:13.92000008px;font-family:Arial;-inkscape-font-specification:'Arial Bold';writing-mode:lr-tb;fill:#ffffff;fill-opacity:1;fill-rule:nonzero;stroke:none"
           transform="matrix(1,0,0,-1,558.74,811.27)"><tspan
             id="tspan296"
             y="0"
             x="0 8.3937597 12.26352 20.62944 28.31328 32.183041">Final </tspan></text>
</g></g><g
       id="g300"><g
         clip-path="url(#clipPath306)"
         id="g302"><text
           id="text310"
           style="font-variant:normal;font-weight:bold;font-size:13.92000008px;font-family:Arial;-inkscape-font-specification:'Arial Bold';writing-mode:lr-tb;fill:#ffffff;fill-opacity:1;fill-rule:nonzero;stroke:none"
           transform="matrix(1,0,0,-1,547.7,794.47)"><tspan
             id="tspan308"
             y="0"
             x="0 9.3403196 17.02416 22.53648 30.22032 42.692638 50.37648">Params.</tspan></text>
</g></g><path
       id="path312"
       style="fill:#ffc000;fill-opacity:1;fill-rule:evenodd;stroke:none"
       d="m 682.8,808.44 19.63,21.48 h 58.9 l 19.63,-21.48 -19.63,-21.48 h -58.9 z" /><path
       id="path314"
       style="fill:none;stroke:#bc8c00;stroke-width:0.95999998;stroke-linecap:butt;stroke-linejoin:miter;stroke-miterlimit:10;stroke-dasharray:none;stroke-opacity:1"
       d="m 682.8,808.44 19.63,21.48 h 58.9 l 19.63,-21.48 -19.63,-21.48 h -58.9 z" /><g
       id="g316"><g
         clip-path="url(#clipPath322)"
         id="g318"><text
           id="text326"
           style="font-variant:normal;font-weight:bold;font-size:13.92000008px;font-family:Arial;-inkscape-font-specification:'Arial Bold';writing-mode:lr-tb;fill:#ffffff;fill-opacity:1;fill-rule:nonzero;stroke:none"
           transform="matrix(1,0,0,-1,714.31,811.39)"><tspan
             id="tspan324"
             y="0"
             x="0 9.8414402 15.35376 23.0376 31.43136 35.301121">Arch. </tspan></text>
</g></g><g
       id="g328"><g
         clip-path="url(#clipPath334)"
         id="g330"><text
           id="text338"
           style="font-variant:normal;font-weight:bold;font-size:13.92000008px;font-family:Arial;-inkscape-font-specification:'Arial Bold';writing-mode:lr-tb;fill:#ffffff;fill-opacity:1;fill-rule:nonzero;stroke:none"
           transform="matrix(1,0,0,-1,704.71,794.59)"><tspan
             id="tspan336"
             y="0"
             x="0 9.3403196 17.02416 22.53648 30.22032 42.692638 50.37648">Params.</tspan></text>
</g></g><path
       id="path340"
       style="fill:#a5a5a5;fill-opacity:1;fill-rule:evenodd;stroke:none"
       d="m 935.04,808.56 19.58,21.6 h 58.76 l 19.58,-21.6 -19.58,-21.6 h -58.76 z" /><path
       id="path342"
       style="fill:none;stroke:#787878;stroke-width:0.95999998;stroke-linecap:butt;stroke-linejoin:miter;stroke-miterlimit:10;stroke-dasharray:none;stroke-opacity:1"
       d="m 935.04,808.56 19.58,21.6 h 58.76 l 19.58,-21.6 -19.58,-21.6 h -58.76 z" /><g
       id="g344"><g
         clip-path="url(#clipPath350)"
         id="g346"><text
           id="text354"
           style="font-variant:normal;font-weight:bold;font-size:13.92000008px;font-family:Arial;-inkscape-font-specification:'Arial Bold';writing-mode:lr-tb;fill:#ffffff;fill-opacity:1;fill-rule:nonzero;stroke:none"
           transform="matrix(1,0,0,-1,966.58,811.58)"><tspan
             id="tspan352"
             y="0"
             x="0 9.8414402 15.35376 23.0376 31.43136 35.301121">Arch. </tspan></text>
</g></g><g
       id="g356"><g
         clip-path="url(#clipPath362)"
         id="g358"><text
           id="text366"
           style="font-variant:normal;font-weight:bold;font-size:13.92000008px;font-family:Arial;-inkscape-font-specification:'Arial Bold';writing-mode:lr-tb;fill:#ffffff;fill-opacity:1;fill-rule:nonzero;stroke:none"
           transform="matrix(1,0,0,-1,959.86,794.78)"><tspan
             id="tspan364"
             y="0"
             x="0 11.74848 19.43232 23.998079 29.510401 33.380161 41.03616">Metrics</tspan></text>
</g></g><path
       id="path368"
       style="fill:#5b9bd5;fill-opacity:1;fill-rule:evenodd;stroke:none"
       d="m 810,646.92 19.63,21.48 h 58.9 l 19.63,-21.48 -19.63,-21.48 h -58.9 z" /><path
       id="path370"
       style="fill:none;stroke:#41719c;stroke-width:0.95999998;stroke-linecap:butt;stroke-linejoin:miter;stroke-miterlimit:10;stroke-dasharray:none;stroke-opacity:1"
       d="m 810,646.92 19.63,21.48 h 58.9 l 19.63,-21.48 -19.63,-21.48 h -58.9 z" /><g
       id="g372"><g
         clip-path="url(#clipPath378)"
         id="g374"><text
           id="text382"
           style="font-variant:normal;font-weight:bold;font-size:13.94400024px;font-family:Arial;-inkscape-font-specification:'Arial Bold';writing-mode:lr-tb;fill:#ffffff;fill-opacity:1;fill-rule:nonzero;stroke:none"
           transform="matrix(1,0,0,-1,841.54,649.92)"><tspan
             id="tspan380"
             y="0"
             x="0 9.8444643 15.352344 23.035488 31.429775 35.30621">Arch. </tspan></text>
</g></g><g
       id="g384"><g
         clip-path="url(#clipPath390)"
         id="g386"><text
           id="text394"
           style="font-variant:normal;font-weight:bold;font-size:13.94400024px;font-family:Arial;-inkscape-font-specification:'Arial Bold';writing-mode:lr-tb;fill:#ffffff;fill-opacity:1;fill-rule:nonzero;stroke:none"
           transform="matrix(1,0,0,-1,838.42,633.12)"><tspan
             id="tspan392"
             y="0"
             x="0 9.3424797 13.902168 21.585312 26.145 33.828144">States</tspan></text>
</g></g><path
       id="path396"
       style="fill:#00b0f0;fill-opacity:1;fill-rule:evenodd;stroke:none"
       d="m 347.4,646.8 23.23,21.48 h 69.7 l 23.23,-21.48 -23.23,-21.48 h -69.7 z" /><path
       id="path398"
       style="fill:none;stroke:#41719c;stroke-width:6;stroke-linecap:butt;stroke-linejoin:miter;stroke-miterlimit:10;stroke-dasharray:none;stroke-opacity:1"
       d="m 347.4,646.8 23.23,21.48 h 69.7 l 23.23,-21.48 -23.23,-21.48 h -69.7 z" /><g
       id="g400"><g
         clip-path="url(#clipPath406)"
         id="g402"><text
           id="text410"
           style="font-variant:normal;font-weight:bold;font-size:13.94400024px;font-family:Arial;-inkscape-font-specification:'Arial Bold';writing-mode:lr-tb;fill:#ffffff;fill-opacity:1;fill-rule:nonzero;stroke:none"
           transform="matrix(1,0,0,-1,372.19,649.92)"><tspan
             id="tspan408"
             y="0"
             x="0 10.067568 17.764656 25.4478 33.130943 41.52523 49.919521 58.313808">Backbone</tspan></text>
</g></g><g
       id="g412"><g
         clip-path="url(#clipPath418)"
         id="g414"><text
           id="text422"
           style="font-variant:normal;font-weight:bold;font-size:13.94400024px;font-family:Arial;-inkscape-font-specification:'Arial Bold';writing-mode:lr-tb;fill:#ffffff;fill-opacity:1;fill-rule:nonzero;stroke:none"
           transform="matrix(1,0,0,-1,387.55,633.12)"><tspan
             id="tspan420"
             y="0"
             x="0 9.8444643 15.352344 23.035488 31.429775">Arch.</tspan></text>
</g></g><path
       id="path424"
       style="fill:#1f4e79;fill-opacity:1;fill-rule:evenodd;stroke:none"
       d="m 451.68,729.36 26.06,21.12 h 78.2 L 582,729.36 555.94,708.24 h -78.2 z" /><path
       id="path426"
       style="fill:none;stroke:#2f528f;stroke-width:0.95999998;stroke-linecap:butt;stroke-linejoin:miter;stroke-miterlimit:10;stroke-dasharray:none;stroke-opacity:1"
       d="m 451.68,729.36 26.06,21.12 h 78.2 L 582,729.36 555.94,708.24 h -78.2 z" /><g
       id="g428"><g
         clip-path="url(#clipPath434)"
         id="g430"><text
           id="text438"
           style="font-variant:normal;font-weight:bold;font-size:13.92000008px;font-family:Arial;-inkscape-font-specification:'Arial Bold';writing-mode:lr-tb;fill:#ffffff;fill-opacity:1;fill-rule:nonzero;stroke:none"
           transform="matrix(1,0,0,-1,499.18,732.41)"><tspan
             id="tspan436"
             y="0"
             x="0 9.8414402 15.35376 23.0376 31.43136">Arch.</tspan></text>
</g></g><g
       id="g440"><g
         clip-path="url(#clipPath446)"
         id="g442"><text
           id="text450"
           style="font-variant:normal;font-weight:bold;font-size:13.92000008px;font-family:Arial;-inkscape-font-specification:'Arial Bold';writing-mode:lr-tb;fill:#ffffff;fill-opacity:1;fill-rule:nonzero;stroke:none"
           transform="matrix(1,0,0,-1,479.74,715.61)"><tspan
             id="tspan448"
             y="0"
             x="0 10.05024 17.789761 26.15568 34.549438 38.419201 46.785118 54.46896 59.034721 66.718559">Candidates</tspan></text>
</g></g><path
       id="path452"
       style="fill:#ffffff;fill-opacity:1;fill-rule:evenodd;stroke:none"
       d="m 981.12,853.2 h 125.28 v 69.84 H 981.12 Z" /><path
       id="path454"
       style="fill:none;stroke:#000000;stroke-width:0.95999998;stroke-linecap:butt;stroke-linejoin:miter;stroke-miterlimit:10;stroke-dasharray:none;stroke-opacity:1"
       d="m 981.12,853.2 h 125.28 v 69.84 H 981.12 Z" /><path
       id="path456"
       style="fill:none;stroke:#2f528f;stroke-width:2.16000009;stroke-linecap:butt;stroke-linejoin:miter;stroke-miterlimit:10;stroke-dasharray:none;stroke-opacity:1"
       d="m 1029.24,879.04 c 0,1.7 -1.38,3.08 -3.08,3.08 h -31.52 c -1.7,0 -3.08,-1.38 -3.08,-3.08 v -12.32 c 0,-1.7 1.38,-3.08 3.08,-3.08 h 31.52 c 1.7,0 3.08,1.38 3.08,3.08 z" /><path
       id="path458"
       style="fill:none;stroke:#787878;stroke-width:2.16000009;stroke-linecap:butt;stroke-linejoin:miter;stroke-miterlimit:10;stroke-dasharray:none;stroke-opacity:1"
       d="m 987.72,902.4 9.12,7.8 h 27.36 l 9.12,-7.8 -9.12,-7.8 h -27.36 z" /><g
       id="g460"><g
         clip-path="url(#clipPath466)"
         id="g462"><text
           id="text470"
           style="font-variant:normal;font-weight:normal;font-size:13.92000008px;font-family:Arial;-inkscape-font-specification:Arial;writing-mode:lr-tb;fill:#000000;fill-opacity:1;fill-rule:nonzero;stroke:none"
           transform="matrix(1,0,0,-1,1038.07,896.64)"><tspan
             id="tspan468"
             y="0"
             x="0 8.3937597 16.0776 20.64336 23.733601 31.47312 39.12912 42.21936">Variable</tspan></text>
</g></g><g
       id="g472"><g
         clip-path="url(#clipPath478)"
         id="g474"><text
           id="text482"
           style="font-variant:normal;font-weight:normal;font-size:13.92000008px;font-family:Arial;-inkscape-font-specification:Arial;writing-mode:lr-tb;fill:#000000;fill-opacity:1;fill-rule:nonzero;stroke:none"
           transform="matrix(1,0,0,-1,1037.18,867.38)"><tspan
             id="tspan480"
             y="0"
             x="0 9.3403196 13.90608 21.58992 28.549919 36.233761 43.917599 51.60144 56.167198">Procedure</tspan></text>
</g></g><g
       id="g484"><g
         clip-path="url(#clipPath490)"
         id="g486"><text
           id="text494"
           style="font-variant:normal;font-weight:bold;font-size:24.02400017px;font-family:Arial;-inkscape-font-specification:'Arial Bold';writing-mode:lr-tb;fill:#000000;fill-opacity:1;fill-rule:nonzero;stroke:none"
           transform="matrix(1,0,0,-1,789.98,768.02)"><tspan
             id="tspan492"
             y="0"
             x="0 20.011992 34.618584 49.297249 63.97591 70.654587 84.108025 93.453362 110.79869 127.35123">ModularNAS</tspan></text>
</g></g><path
       id="path496"
       style="fill:none;stroke:#000000;stroke-width:0.72000003;stroke-linecap:butt;stroke-linejoin:round;stroke-miterlimit:10;stroke-dasharray:none;stroke-opacity:1"
       d="m 347.4,681.48 h 56.88 v 24.24 H 347.4 Z" /><g
       id="g498"><g
         clip-path="url(#clipPath504)"
         id="g500"><text
           id="text508"
           style="font-variant:normal;font-weight:normal;font-size:13.92000008px;font-family:Arial;-inkscape-font-specification:Arial;writing-mode:lr-tb;fill:#000000;fill-opacity:1;fill-rule:nonzero;stroke:none"
           transform="matrix(1,0,0,-1,354.55,688.34)"><tspan
             id="tspan506"
             y="0"
             x="0 3.6052799 13.65552 23.0376 33.087841">INPUT</tspan></text>
</g></g><path
       id="path510"
       style="fill:none;stroke:#000000;stroke-width:0.72000003;stroke-linecap:butt;stroke-linejoin:round;stroke-miterlimit:10;stroke-dasharray:none;stroke-opacity:1"
       d="m 347.4,869.4 h 72.48 v 24.24 H 347.4 Z" /><g
       id="g512"><g
         clip-path="url(#clipPath518)"
         id="g514"><text
           id="text522"
           style="font-variant:normal;font-weight:normal;font-size:13.92000008px;font-family:Arial;-inkscape-font-specification:Arial;writing-mode:lr-tb;fill:#000000;fill-opacity:1;fill-rule:nonzero;stroke:none"
           transform="matrix(1,0,0,-1,354.46,876.48)"><tspan
             id="tspan520"
             y="0"
             x="0 10.82976 20.879999 29.510401 38.850719 48.900959">OUTPUT</tspan></text>
</g></g></g></svg>